{"accessors":{"accessor_0":{"bufferView":"bufferView_0","byteOffset":0,"byteStride":0,"componentType":5126,"count":60000,"min":[-3,-3,0],"max":[3,3,18],"type":"VEC3"},"accessor_1":{"bufferView":"bufferView_0","byteOffset":720000,"byteStride":0,"componentType":5126,"count":60000,"min":[-0.986117959022522,-0.986117959022522,0.11820698529481888],"max":[0.986117959022522,0.986117959022522,1],"type":"VEC3"},"accessor_2":{"bufferView":"bufferView_0","byteOffset":1440000,"byteStride":0,"componentType":5126,"count":60000,"min":[0,0],"max":[1,1],"type":"VEC2"},"accessor_3":{"bufferView":"bufferView_1","byteOffset":0,"byteStride":0,"componentType":5123,"count":60000,"min":[0],"max":[59999],"type":"SCALAR"}},"asset":{"generator":"obj2gltf","profile":{"api":"WebGL","version":"1.0"},"version":"1.0","premultipliedAlpha":true},"buffers":{"buffer":{"type":"arraybuffer","byteLength":2040000,"uri":"data:application/octet-stream;base64,"}},"bufferViews":{"bufferView_0":{"buffer":"buffer","byteLength":1920000,"byteOffset":0,"target":34962},"bufferView_1":{"buffer":"buffer","byteLength":120000,"byteOffset":1920000,"target":34963}},"extensionsUsed":["KHR_materials_common"],"images":{},"materials":{"default":{"extensions":{"KHR_materials_common":{"doubleSided":true,"technique":"PHONG","values":{"ambient":[0,0,0,1],"diffuse":[0.5,0.5,0.5,1],"emission":[0,0,0,1],"specular":[0,0,0,1],"shininess":0,"transparency":1}}}}},"meshes":{"Node-Mesh":{"name":"Node-Mesh","primitives":[{"attributes":{"POSITION":"accessor_0","NORMAL":"accessor_1","TEXCOORD_0":"accessor_2"},"indices":"accessor_3","material":"default","mode":4}]}},"nodes":{"rootNode":{"children":[],"meshes":["Node-Mesh"],"matrix":[1,0,0,0,0,1,0,0,0,0,1,0,0,0,0,1]}},"samplers":{},"scene":"scene","scenes":{"scene":{"nodes":["rootNode"]}},"textures":{},"animations":{},"cameras":{},"skins":{},"extensions":{"KHR_materials_common":{"lights":{"defaultAmbient":{"ambient":{"color":[1,1,1]},"name":"defaultAmbient","type":"ambient"}}}}}
